<?xml version="1.0" standalone="no"?>
<!DOCTYPE svg PUBLIC "-//W3C//DTD SVG 20010904//EN"
 "http://www.w3.org/TR/2001/REC-SVG-20010904/DTD/svg10.dtd">
<svg version="1.0" xmlns="http://www.w3.org/2000/svg"
 width="1024.000000pt" height="1024.000000pt" viewBox="0 0 1024.000000 1024.000000"
 preserveAspectRatio="xMidYMid meet">

<g transform="translate(0.000000,1024.000000) scale(0.100000,-0.100000)"
fill="#000000" stroke="none">
<path d="M4471 7769 c-377 -34 -732 -158 -1046 -367 -365 -242 -685 -614 -875
-1015 -102 -215 -188 -498 -227 -747 -33 -212 -22 -848 17 -944 6 -14 9 12 9
74 2 220 62 446 183 684 161 320 431 616 729 801 263 163 548 253 873 275 78
5 664 10 1303 10 1268 0 1222 -2 1376 58 127 49 215 108 323 216 112 113 176
204 233 334 74 168 109 325 113 507 l3 120 -1460 1 c-803 1 -1502 -2 -1554 -7z"/>
<path d="M7472 6414 c-35 -129 -136 -280 -276 -411 -100 -93 -213 -163 -338
-210 -188 -71 -88 -66 -1513 -73 -1412 -7 -1315 -2 -1510 -66 -494 -160 -909
-631 -1014 -1152 -60 -296 -42 -637 49 -904 74 -217 200 -416 370 -588 219
-221 477 -388 789 -511 330 -130 650 -194 1014 -206 l197 -6 0 736 0 737 -235
0 c-135 0 -256 5 -287 11 -272 58 -414 346 -292 591 47 93 116 152 231 197
l68 26 960 5 960 5 85 28 c346 116 621 420 716 794 36 141 45 302 42 697 -3
309 -4 344 -16 300z"/>
<path d="M7470 4468 c-33 -111 -130 -258 -249 -377 -175 -175 -354 -272 -582
-315 -55 -11 -203 -15 -591 -18 l-518 -3 0 -717 0 -718 23 0 c33 0 239 36 342
60 592 136 1135 461 1412 847 78 109 138 228 157 314 12 50 17 168 22 517 4
249 4 452 2 452 -3 0 -11 -19 -18 -42z"/>
</g>
</svg>
